<?xml version="1.0" encoding="utf-8"?>
<!-- Generator: Adobe Illustrator 18.0.0, SVG Export Plug-In . SVG Version: 6.00 Build 0)  -->
<!DOCTYPE svg PUBLIC "-//W3C//DTD SVG 1.1//EN" "http://www.w3.org/Graphics/SVG/1.1/DTD/svg11.dtd" [
  <!ENTITY ns_extend "http://ns.adobe.com/Extensibility/1.0/">
  <!ENTITY ns_ai "http://ns.adobe.com/AdobeIllustrator/10.0/">
  <!ENTITY ns_graphs "http://ns.adobe.com/Graphs/1.0/">
  <!ENTITY ns_vars "http://ns.adobe.com/Variables/1.0/">
  <!ENTITY ns_imrep "http://ns.adobe.com/ImageReplacement/1.0/">
  <!ENTITY ns_sfw "http://ns.adobe.com/SaveForWeb/1.0/">
  <!ENTITY ns_custom "http://ns.adobe.com/GenericCustomNamespace/1.0/">
  <!ENTITY ns_adobe_xpath "http://ns.adobe.com/XPath/1.0/">
]>
<svg version="1.1" id="Слой_1" xmlns:x="&ns_extend;" xmlns:i="&ns_ai;" xmlns:graph="&ns_graphs;"
   xmlns="http://www.w3.org/2000/svg" xmlns:xlink="http://www.w3.org/1999/xlink" x="0px" y="0px" viewBox="0 0 600 1200"
   style="enable-background:new 0 0 600 1200;" xml:space="preserve" width="600" height="1200">
<style type="text/css">
  .st0{fill:none;}
  .st1{fill:#2B2B2A;}
  .st2{fill:#3DB39E;}
  .st3{fill:#272726;}
  .st4{fill:#2C2C2A;}
  .st5{fill:#FFFFFF;enable-background:new    ;}
  .st6{fill:#FFFFFF;}
  .st7{fill:#222220;}
  .st8{fill:#E7E7E7;}
  .st9{fill:#B9B9B9;}
</style>
<metadata>
  <sfw  xmlns="&ns_sfw;">
    <slices></slices>
    <sliceSourceBounds  width="16383" height="236" y="-236" x="-7891" bottomLeftOrigin="true"></sliceSourceBounds>
  </sfw>
</metadata>
<g id="gobus-icon">
  <rect id="box-rect" x="0.0000067" y="0.0000038" class="st0" width="22" height="22"/>
  <path class="st1" d="M11,0C4.9339905,0,0,4.9349995,0,11s4.9339905,11,11,11c6.0650024,0,11-4.9350014,11-11S17.0650024,0,11,0z
     M18.5629883,6.3869991h-2.0739746c-0.2900085-1.1709995-0.684021-2.2279987-1.1690063-3.1269989
    C16.6520081,4.0059986,17.7669983,5.0869999,18.5629883,6.3869991z M19.8710022,11
    c0,0.862999-0.1300049,1.6949997-0.3609924,2.4840012h-2.631012C16.9760132,12.6870003,17.0320129,11.8579979,17.0320129,11
    c0-0.8579998-0.0559998-1.6870003-0.1530151-2.4840012h2.631012C19.7409973,9.3050003,19.8710022,10.1369991,19.8710022,11z
     M2.1289978,11c0-0.8630009,0.1289978-1.6949997,0.3600159-2.4840012h2.6319885
    C5.0239868,9.3129997,4.9670105,10.1420002,4.9670105,11c0,0.8579979,0.0569763,1.6870003,0.1539917,2.4840012H2.4890137
    C2.2579956,12.6949997,2.1289978,11.862999,2.1289978,11z M7.0960083,11c0-0.8770008,0.0629883-1.7049999,0.1679993-2.4840012
    h2.67099v4.9680023h-2.67099C7.1589966,12.7060013,7.0960083,11.8769989,7.0960083,11z M12.0639954,2.5149994
    c0.8779907,0.6259995,1.7030029,1.9939995,2.2350159,3.8719997h-2.2350159V2.5149994z M9.9349976,2.5149994v3.8719997H7.7000122
    C8.2330017,4.5089989,9.0570068,3.1409988,9.9349976,2.5149994z M9.9349976,15.612999v3.8720016
    c-0.8779907-0.6259995-1.7019958-1.9939995-2.2349854-3.8720016H9.9349976z M12.0639954,19.4850006V15.612999h2.2350159
    C13.7669983,17.4910011,12.9419861,18.8590012,12.0639954,19.4850006z M12.0639954,13.4840012V8.5159988h2.6719971
    C14.8410034,9.2950001,14.9030151,10.1229992,14.9030151,11c0,0.8769989-0.0620117,1.7060013-0.1670227,2.4840012H12.0639954z
     M6.6789856,3.2600002C6.1940002,4.1590004,5.7999878,5.2159996,5.5100098,6.3869991h-2.072998
    C4.2319946,5.0869999,5.3469849,4.0059986,6.6789856,3.2600002z M3.4370117,15.612999h2.072998
    c0.289978,1.170002,0.6839905,2.2280006,1.1689758,3.1280022C5.3469849,17.9939995,4.2319946,16.9129982,3.4370117,15.612999z
     M15.3200073,18.7410011c0.4849854-0.9000015,0.8789978-1.9580002,1.1690063-3.1280022h2.0739746
    C17.7669983,16.9129982,16.6520081,17.9939995,15.3200073,18.7410011z"/>
</g>
<g id="fav-icon-set">
  <g id="fav-icon">
    <rect id="box-rect_1_" x="32" y="0.0000076" class="st0" width="24" height="22"/>
    <path class="st1" d="M49.25,2.2000065c2.480957,0,4.5,1.9740009,4.5,4.4000015c0,6.4820004-7.0760498,11.2870007-9.75,12.8700008
      c-2.6739502-1.5830002-9.75-6.3880005-9.75-12.8700008c0-2.4260006,2.0179443-4.4000015,4.5-4.4000015
      c1.3640137,0,2.6390381,0.5970001,3.5,1.6380005c0.427002,0.5179996,1.0699463,0.8180008,1.75,0.8180008l0,0
      c0.6800537,0,1.322998-0.3000011,1.75-0.8180008C46.6099854,2.7970066,47.8859863,2.2000065,49.25,2.2000065 M49.25,0.0000076
      c-2.1219482,0-4.0129395,0.9589996-5.25,2.4559994c-1.2380371-1.4969997-3.1280518-2.4559994-5.25-2.4559994
      c-3.7280273,0-6.75,2.9549999-6.75,6.6000004c0,8.7999973,10.5,14.6669979,12,15.3999996
      c1.5-0.7330017,12-6.6000023,12-15.3999996C56,2.9550076,52.9780273,0.0000076,49.25,0.0000076L49.25,0.0000076z"/>
  </g>
  <g id="fav-icon-hovered">
    <rect id="box-rect_2_" x="66" y="0.0000076" class="st0" width="24" height="22"/>
    <path class="st2" d="M83.25,2.2000065c2.480957,0,4.5,1.9740009,4.5,4.4000015c0,6.4820004-7.0760498,11.2870007-9.75,12.8700008
      c-2.6739502-1.5830002-9.75-6.3880005-9.75-12.8700008c0-2.4260006,2.0179443-4.4000015,4.5-4.4000015
      c1.3640137,0,2.6390381,0.5970001,3.5,1.6380005c0.427002,0.5179996,1.0699463,0.8180008,1.75,0.8180008l0,0
      c0.6800537,0,1.322998-0.3000011,1.75-0.8180008C80.6099854,2.7970066,81.8859863,2.2000065,83.25,2.2000065 M83.25,0.0000076
      c-2.1219482,0-4.0129395,0.9589996-5.25,2.4559994c-1.2380371-1.4969997-3.1280518-2.4559994-5.25-2.4559994
      c-3.7280273,0-6.75,2.9549999-6.75,6.6000004c0,8.7999973,10.5,14.6669979,12,15.3999996
      c1.5-0.7330017,12-6.6000023,12-15.3999996C90,2.9550076,86.9780273,0.0000076,83.25,0.0000076L83.25,0.0000076z"/>
  </g>
  <g id="fav-icon-2">
    <rect id="box-rect_3_" x="100" y="0.0000076" class="st0" width="24" height="22"/>
    <path class="st2" d="M117.25,2.2000065c2.480957,0,4.5,1.9740009,4.5,4.4000015c0,6.4820004-7.0760498,11.2870007-9.75,12.8700008
      c-2.6739502-1.5830002-9.75-6.3880005-9.75-12.8700008c0-2.4260006,2.0179443-4.4000015,4.5-4.4000015
      c1.3640137,0,2.6390381,0.5970001,3.5,1.6380005c0.427002,0.5179996,1.0699463,0.8180008,1.75,0.8180008l0,0
      c0.6800537,0,1.322998-0.3000011,1.75-0.8180008C114.6099854,2.7970066,115.8859863,2.2000065,117.25,2.2000065 M117.25,0.0000076
      c-2.1219482,0-4.0129395,0.9589996-5.25,2.4559994c-1.2380371-1.4969997-3.1280518-2.4559994-5.25-2.4559994
      c-3.7280273,0-6.75,2.9549999-6.75,6.6000004c0,8.7999973,10.5,14.6669979,12,15.3999996
      c1.5-0.7330017,12-6.6000023,12-15.3999996C124,2.9550076,120.9780273,0.0000076,117.25,0.0000076L117.25,0.0000076z"/>
  </g>
  <g id="fav-icon-3">
    <rect id="box-rect_4_" x="134.0000153" y="0.0000076" class="st0" width="24" height="22"/>
    <path class="st2" d="M151.2500153,2.2000065c2.480957,0,4.5,1.9740009,4.5,4.4000015
      c0,6.4820004-7.0760498,11.2870007-9.75,12.8700008c-2.6739502-1.5830002-9.75-6.3880005-9.75-12.8700008
      c0-2.4260006,2.0179443-4.4000015,4.5-4.4000015c1.3640137,0,2.6390381,0.5970001,3.5,1.6380005
      c0.427002,0.5179996,1.0699463,0.8180008,1.75,0.8180008l0,0c0.6800537,0,1.322998-0.3000011,1.75-0.8180008
      C148.6100006,2.7970066,149.8860016,2.2000065,151.2500153,2.2000065 M151.2500153,0.0000076
      c-2.1219482,0-4.0129395,0.9589996-5.25,2.4559994c-1.2380371-1.4969997-3.1280518-2.4559994-5.25-2.4559994
      c-3.7280273,0-6.75,2.9549999-6.75,6.6000004c0,8.7999973,10.5,14.6669979,12,15.3999996
      c1.5-0.7330017,12-6.6000023,12-15.3999996C158.0000153,2.9550076,154.9780426,0.0000076,151.2500153,0.0000076
      L151.2500153,0.0000076z"/>
  </g>
</g>
<g id="lock-icon-set">
  <g id="lock-icon">
    <rect id="box-rect_5_" x="168.0000153" y="0.0000076" class="st0" width="20" height="24"/>
    <path class="st3" d="M184.154068,9.0000076v-3c0-3.3140011-2.7561035-6-6.1540527-6c-3.3990479,0-6.1540527,2.6859989-6.1540527,6
      v3h-2.3079834c-0.848999,0-1.5379639,0.6709995-1.5379639,1.5v12c0,0.8279991,0.6889648,1.5,1.5379639,1.5h16.9230957
      c0.8499756,0,1.5389404-0.6720009,1.5389404-1.5v-12c0-0.8290005-0.6889648-1.5-1.5389404-1.5H184.154068z M174.154068,6.0000076
      c0-2.0680008,1.7249756-3.75,3.8459473-3.75c2.1199951,0,3.8459473,1.6819992,3.8459473,3.75v3h-7.6918945V6.0000076z
       M185.6920319,21.7500076h-15.3840332v-10.5h15.3840332V21.7500076z"/>
  </g>
  <g id="lock-icon-hovered">
    <rect id="box-rect_6_" x="198.0000153" y="0.0000076" class="st0" width="20" height="24"/>
    <path class="st2" d="M214.154068,9.0000076v-3c0-3.3140011-2.7561035-6-6.1540527-6c-3.3990479,0-6.1540527,2.6859989-6.1540527,6
      v3h-2.3079834c-0.848999,0-1.5379639,0.6709995-1.5379639,1.5v12c0,0.8279991,0.6889648,1.5,1.5379639,1.5h16.9230957
      c0.8499756,0,1.5389404-0.6720009,1.5389404-1.5v-12c0-0.8290005-0.6889648-1.5-1.5389404-1.5H214.154068z M204.154068,6.0000076
      c0-2.0680008,1.7249756-3.75,3.8459473-3.75c2.1199951,0,3.8459473,1.6819992,3.8459473,3.75v3h-7.6918945V6.0000076z
       M215.6920319,21.7500076h-15.3840332v-10.5h15.3840332V21.7500076z"/>
  </g>
</g>
<g id="rocet-icon-set">
  <g id="rocet-icon-hovered">
    <path class="st2" d="M279.8745117,11.3419991c-1.034668,1.5900002-2.48349,2.9090004-4.1026917,3.9750023
      c-0.1564026,2.5769997-1.4618225,4.9769974-3.5852356,6.4909973C272.0081482,21.9349976,271.7984924,22,271.5860291,22
      c-0.1334229,0-0.2666931-0.0250015-0.394104-0.0779991c-0.3288574-0.1360016-0.5644531-0.4309998-0.6235657-0.7820015
      c-0.1573792-0.9280014-0.5734863-1.9560013-1.1871643-2.9959984c-0.6876831,0.1879997-1.3544617,0.3409996-1.979126,0.4489975
      c-0.0591125,0.0110016-0.1182251,0.0160027-0.1774597,0.0160027c-0.271698,0-0.5343628-0.1070023-0.7297974-0.3030014
      l-2.8013306-2.8009987c-0.2375793-0.2370033-0.3449097-0.5760002-0.2877502-0.9070015
      c0.1092834-0.625,0.2606812-1.2919998,0.4491577-1.9790001c-1.0386963-0.612999-2.0663757-1.0289993-2.9937134-1.1860008
      c-0.3519897-0.0599976-0.646698-0.2959976-0.7830505-0.6239986c-0.1353455-0.3290005-0.0932617-0.7049999,0.1143188-0.9940014
      c1.5149231-2.1239986,3.914093-3.4299984,6.4908447-3.5869999c1.0647583-1.6199989,2.3841248-3.0679989,3.9733276-4.1029987
      C273.6713867,0.1619987,277.2536926,0,280.9673157,0C281.5377502,0,282,0.4619999,282,1.0319996
      C282,4.5979996,281.8356628,8.3299999,279.8745117,11.3419991z M271.9930725,19.7340012
      c0.9344482-0.9099998,1.5871277-2.0670013,1.8888245-3.3260002c-0.9283142,0.4759979-1.8787842,0.8769989-2.8162537,1.2089996
      C271.4597168,18.329998,271.7754822,19.0410004,271.9930725,19.7340012z M262.2667847,10.0079994
      c0.691864,0.217001,1.40271,0.5330009,2.1154785,0.9260006c0.3319092-0.9360008,0.7330017-1.8859997,1.2082214-2.816
      C264.3331909,8.4209995,263.177124,9.073,262.2667847,10.0079994z M271.7835693,3.855999
      c-3.2866211,2.1400013-5.4652405,6.7560005-6.2442322,10.5750008l2.0302734,2.0279999
      c3.8179016-0.7779999,8.4338989-2.9560013,10.5744629-6.2439995c1.4838257-2.2779999,1.74646-5.1330013,1.7845154-8.144001
      C276.9168701,2.1089993,274.0634155,2.3710003,271.7835693,3.855999z M274.7702026,8.9510002
      c-0.95047,0-1.7204285-0.7700005-1.7204285-1.7220001c0-0.9500008,0.7699585-1.7210007,1.7204285-1.7210007
      c0.9515686,0,1.7214966,0.7709999,1.7214966,1.7210007C276.4916992,8.1809998,275.7217712,8.9510002,274.7702026,8.9510002z
       M261.4196167,18.4339981c0.213562-0.7069969,0.8701782-1.2209969,1.6472168-1.2209969
      c0.95047,0,1.7205505,0.7699966,1.7205505,1.7209969c0,0.7770004-0.5144043,1.4340019-1.2211914,1.6480026l-2.4653931,0.7469978
      c-0.0310974,0.0090027-0.0652161,0.0149994-0.1002197,0.0149994c-0.1896057,0-0.3439331-0.1539993-0.3439331-0.343998
      c0-0.0359993,0.0050354-0.0690002,0.0150757-0.1000023L261.4196167,18.4339981z"/>
    <rect id="box-rect_7_" x="260" class="st0" width="22" height="22"/>
  </g>
  <g id="rocet-icon">
    <path class="st1" d="M247.8744965,11.342c-1.034668,1.5900002-2.48349,2.9090004-4.1026764,3.9750023
      c-0.1564178,2.5769987-1.4618073,4.9769964-3.5852356,6.4909964C240.0081329,21.9349976,239.7984924,22,239.5860291,22
      c-0.1334076,0-0.2666931-0.0250015-0.3940887-0.0779991c-0.3288574-0.1360016-0.5644531-0.4309998-0.6235657-0.7820015
      c-0.1573944-0.9280014-0.5735168-1.9560013-1.1871643-2.9959984c-0.6876984,0.1879997-1.3544769,0.3409996-1.9791412,0.4489975
      c-0.0591125,0.0110016-0.1182251,0.0160027-0.1774597,0.0160027c-0.271698,0-0.5343475-0.1070023-0.7297974-0.3030014
      l-2.8013458-2.8009977c-0.2375488-0.2370033-0.3448792-0.5760002-0.287735-0.9070015
      c0.1092987-0.625,0.2606964-1.2919998,0.449173-1.9790001c-1.0387115-0.612999-2.0664063-1.0289993-2.9937439-1.1860008
      c-0.3519745-0.0599976-0.646698-0.2959976-0.7830353-0.6239986c-0.1353607-0.3290005-0.0932617-0.7049999,0.1143188-0.9940014
      c1.5149078-2.1239986,3.9140778-3.4299984,6.4908447-3.5869999c1.0647736-1.6199989,2.3841095-3.0679991,3.9733276-4.1029987
      c3.0147705-1.9630013,6.5970764-2.125,10.3106842-2.125c0.5704498,0,1.0327148,0.4619999,1.0327148,1.0319996
      C250.0000153,4.5980005,249.8356476,8.3300009,247.8744965,11.342z M239.9930878,19.7340012
      c0.934433-0.9099998,1.5871277-2.0670013,1.8888092-3.3260002c-0.9283142,0.4759979-1.8787689,0.8769989-2.8162689,1.2089996
      C239.4597168,18.329998,239.7754822,19.0410004,239.9930878,19.7340012z M230.2667999,10.0080004
      c0.6918488,0.217001,1.4026794,0.5330009,2.1154633,0.9260006c0.3319244-0.9360008,0.7329865-1.8859997,1.2082214-2.816
      C232.3331909,8.4210005,231.1771088,9.0730009,230.2667999,10.0080004z M239.7835541,3.8559997
      c-3.2866058,2.1400015-5.4652252,6.7560005-6.2442322,10.5750008l2.030304,2.0279989
      c3.8178864-0.7779989,8.4338684-2.9560003,10.5744324-6.2439985c1.4838409-2.2779999,1.7464752-5.1330013,1.7845459-8.144001
      C244.9168701,2.109,242.0634003,2.371001,239.7835541,3.8559997z M242.7701874,8.9510012
      c-0.9504547,0-1.7203979-0.7700005-1.7203979-1.7220001c0-0.9500008,0.7699432-1.7210007,1.7203979-1.7210007
      c0.9515686,0,1.7215118,0.7709999,1.7215118,1.7210007C244.4916992,8.1810007,243.721756,8.9510012,242.7701874,8.9510012z
       M229.4196167,18.4339981c0.2135773-0.7069969,0.8701782-1.2209969,1.6472321-1.2209969
      c0.9504547,0,1.72052,0.7699966,1.72052,1.7209969c0,0.7770004-0.514389,1.4340019-1.2211761,1.6480026l-2.4653931,0.7469978
      c-0.0310822,0.0090027-0.0652313,0.0149994-0.100235,0.0149994c-0.1895752,0-0.3439026-0.1539993-0.3439026-0.343998
      c0-0.0359993,0.0050201-0.0690002,0.0150452-0.1000023L229.4196167,18.4339981z"/>
    <rect id="box-rect_8_" x="228.0000153" y="0.000001" class="st0" width="22" height="22"/>
  </g>
</g>
<g id="mail-icons-set">
  <g id="mail-icon">
    <rect id="box-rect_9_" x="292" class="st0" width="22" height="18"/>
    <path class="st3" d="M293.375,0C292.6159668,0,292,0.6199989,292,1.3850002v15.2299976C292,17.3800011,292.6159668,18,293.375,18
      h19.25c0.7590332,0,1.375-0.6199989,1.375-1.3850021V1.3850002C314,0.6199989,313.3840332,0,312.625,0H293.375z
       M311.9370117,2.0769997v0.5429993L303,10.1720009l-8.9379883-7.552002V2.0769997H311.9370117z M294.0620117,15.9230003V5.3319988
      l8.0539551,6.8050022C302.3719482,12.3530006,302.6860352,12.461998,303,12.461998s0.6280518-0.1089973,0.8840332-0.3249969
      l8.0529785-6.8050022v10.5910015H294.0620117z"/>
  </g>
  <g id="mail-icon-hovered">
    <rect id="box-rect_10_" x="324" class="st0" width="22" height="18"/>
    <path class="st2" d="M325.375,0C324.6159668,0,324,0.6199989,324,1.3850002v15.2299976C324,17.3800011,324.6159668,18,325.375,18
      h19.25c0.7590332,0,1.375-0.6199989,1.375-1.3850021V1.3850002C346,0.6199989,345.3840332,0,344.625,0H325.375z
       M343.9370117,2.0769997v0.5429993L335,10.1720009l-8.9379883-7.552002V2.0769997H343.9370117z M326.0620117,15.9230003V5.3319988
      l8.0539551,6.8050022C334.3719482,12.3530006,334.6860352,12.461998,335,12.461998s0.6280518-0.1089973,0.8840332-0.3249969
      l8.0529785-6.8050022v10.5910015H326.0620117z"/>
  </g>
</g>
<g id="cart-icons-set">
  <g id="cart-icon">
    <rect id="box-rect_11_" x="356" y="0.0000076" class="st0" width="24" height="22"/>
    <path class="st4" d="M379.8120117,6.3630066l-4.1149902,8.9379997c-0.3260498,0.7080002-1.0400391,1.1990013-1.868042,1.1990013
      h-13.0289307c-1.1361084,0-2.0570068-0.9230003-2.0570068-2.0620003V4.2080078l-2.4420166-2.448
      C356.1149902,1.574007,356,1.3160076,356,1.0320072c0-0.5699997,0.4599609-1.0319996,1.0279541-1.0319996
      c0.2840576,0,0.5410156,0.1159992,0.7280273,0.302l3.1270752,3.1359997h17.0599365
      C379.0780029,3.4380074,380,4.3610077,380,5.5000076C380,5.8080063,379.9320068,6.1010075,379.8120117,6.3630066z
       M360.8000488,14.4380074h13.0289307l2.5319824-5.5h-15.5609131V14.4380074z M377.9429932,5.5000076h-17.1429443v1.375h16.5109863
      l0.6329346-1.3760014L377.9429932,5.5000076z M361.4859619,17.8750076c1.1359863,0,2.0570068,0.9230003,2.0570068,2.0620003
      c0,1.1399994-0.9210205,2.0629997-2.0570068,2.0629997s-2.0570068-0.9230003-2.0570068-2.0629997
      C359.4289551,18.798008,360.3499756,17.8750076,361.4859619,17.8750076z M372.4570313,17.8750076
      c1.1359863,0,2.0570068,0.9230003,2.0570068,2.0620003c0,1.1399994-0.9210205,2.0629997-2.0570068,2.0629997
      s-2.0570068-0.9230003-2.0570068-2.0629997C370.4000244,18.798008,371.3210449,17.8750076,372.4570313,17.8750076z"/>
  </g>
  <g id="cart-icon-hovered">
    <rect id="box-rect_12_" x="393" y="0.0000076" class="st0" width="24" height="22"/>
    <path class="st2" d="M416.8120117,6.3630066l-4.1149902,8.9379997c-0.3260498,0.7080002-1.0400391,1.1990013-1.868042,1.1990013
      h-13.0289307c-1.1361084,0-2.0570068-0.9230003-2.0570068-2.0620003V4.2080078l-2.4420166-2.448
      C393.1149902,1.574007,393,1.3160076,393,1.0320072c0-0.5699997,0.4599609-1.0319996,1.0279541-1.0319996
      c0.2840576,0,0.5410156,0.1159992,0.7280273,0.302l3.1270752,3.1359997h17.0599365
      C416.0780029,3.4380074,417,4.3610077,417,5.5000076C417,5.8080063,416.9320068,6.1010075,416.8120117,6.3630066z
       M397.8000488,14.4380074h13.0289307l2.5319824-5.5h-15.5609131V14.4380074z M414.9429932,5.5000076h-17.1429443v1.375h16.5109863
      l0.6329346-1.3760014L414.9429932,5.5000076z M398.4859619,17.8750076c1.1359863,0,2.0570068,0.9230003,2.0570068,2.0620003
      c0,1.1399994-0.9210205,2.0629997-2.0570068,2.0629997s-2.0570068-0.9230003-2.0570068-2.0629997
      C396.4289551,18.798008,397.3499756,17.8750076,398.4859619,17.8750076z M409.4570313,17.8750076
      c1.1359863,0,2.0570068,0.9230003,2.0570068,2.0620003c0,1.1399994-0.9210205,2.0629997-2.0570068,2.0629997
      s-2.0570068-0.9230003-2.0570068-2.0629997C407.4000244,18.798008,408.3210449,17.8750076,409.4570313,17.8750076z"/>
  </g>
</g>
<g id="vk-icon">
  <rect id="box-rect_15_" x="102.0046692" y="34.0046692" class="st0" width="41" height="41"/>
  <path class="st1" d="M104.0046692,34.0046692h37c1.1040039,0,2,0.8959961,2,2v37c0,1.1049805-0.8959961,2-2,2h-37
    c-1.1049805,0-2-0.8950195-2-2v-37C102.0046692,34.9006653,102.8996887,34.0046692,104.0046692,34.0046692z"/>
  <path class="st5" d="M133.6666565,58.7268372c-0.7579346-1.0722656-1.6500244-1.9873047-2.493042-2.9570313
    c-0.7609863-0.8759766-0.80896-1.3842773-0.1968994-2.394043c0.6669922-1.1030273,1.3859863-2.1630859,2.05896-3.2612305
    c0.6290283-1.0258789,1.2719727-2.0498047,1.6020508-3.277832c0.2109375-0.78125,0.0249023-1.1269531-0.6550293-1.2641602
    c-0.1159668-0.0229492-0.2380371-0.0249023-0.3570557-0.0249023l-4.0310059-0.0048828
    c-0.4969482-0.0092773-0.7709961,0.2470703-0.9470215,0.7661133c-0.2369385,0.7006836-0.480957,1.4018555-0.763916,2.0786133
    c-0.6409912,1.5351563-1.3560791,3.019043-2.3599854,4.2753906c-0.2210693,0.277832-0.4650879,0.6269531-0.8360596,0.4838867
    c-0.4620361-0.2001953-0.5980225-1.0981445-0.5909424-1.4023438l-0.0040283-5.487793
    c-0.0889893-0.7851563-0.2359619-1.1337891-0.8969727-1.2871094l-4.1870117,0.0009766
    c-0.5600586,0-0.8400879,0.2553711-1.1390381,0.6669922c-0.1710205,0.2392578-0.2230225,0.3930664,0.1300049,0.4731445
    c0.6960449,0.1538086,1.0870361,0.6860352,1.19104,1.5078125c0.1660156,1.3129883,0.1549072,2.6313477,0.05896,3.9501953
    c-0.0279541,0.3852539-0.0839844,0.769043-0.2139893,1.1289063c-0.2020264,0.5649414-0.5290527,0.6791992-0.9589844,0.3320313
    c-0.3890381-0.3149414-0.6619873-0.7587891-0.9290771-1.2050781c-1.0050049-1.6738281-1.8059082-3.4790039-2.4599609-5.375
    c-0.1879883-0.5488281-0.5140381-0.8808594-1.0059814-0.8896484c-1.2089844-0.0219727-2.4189453-0.0263672-3.6290283,0.0019531
    c-0.7269287,0.015625-0.9449463,0.4316406-0.6479492,1.2109375c1.3179932,3.4550781,2.782959,6.815918,4.697998,9.8769531
    c0.9819336,1.5698242,2.1109619,2.9570313,3.5679932,3.940918c1.6519775,1.1142578,3.4299316,1.4482422,5.3029785,1.3442383
    c0.8769531-0.0483398,1.1400146-0.3173828,1.1810303-1.347168c0.0279541-0.7060547,0.0959473-1.4082031,0.3909912-2.0410156
    c0.2900391-0.6210938,0.7269287-0.7402344,1.2330322-0.3530273c0.2529297,0.1938477,0.4659424,0.4399414,0.6669922,0.7001953
    c0.4929199,0.6357422,0.9699707,1.2939453,1.4819336,1.9086914c0.6430664,0.7709961,1.4040527,1.2270508,2.361084,1.1342773
    h3.7059326c0.5970459-0.0463867,0.9060059-0.9091797,0.5639648-1.6962891
    C134.3176575,59.6916809,134.0016174,59.20047,133.6666565,58.7268372z"/>
</g>
<g id="insta-icon">
  <rect id="box-rect_13_" x="0.0046692" y="34.0046692" class="st0" width="41" height="41"/>
  <g>
    <path class="st1" d="M2.0046692,34.0046692h37c1.1040039,0,2,0.8959961,2,2v37c0,1.1049805-0.8959961,2-2,2h-37
      c-1.1049805,0-2-0.8950195-2-2v-37C0.0046692,34.9006653,0.8996887,34.0046692,2.0046692,34.0046692z"/>
    <g>
      <path class="st6" d="M19.9375,48.25c4.0321255,0,7.3125,3.2803764,7.3125,7.3125s-3.2803745,7.3125-7.3125,7.3125
        s-7.3125-3.2803764-7.3125-7.3125S15.9053745,48.25,19.9375,48.25 M19.9375,44.25
        c-6.2477245,0-11.3125,5.0647736-11.3125,11.3125S13.6897755,66.875,19.9375,66.875S31.25,61.8102264,31.25,55.5625
        S26.1852245,44.25,19.9375,44.25L19.9375,44.25z"/>
    </g>
    <circle class="st6" cx="31.125" cy="44.8388672" r="2.875"/>
  </g>
</g>
<g id="fb-icon">
  <rect id="box-rect_14_" x="51.0046692" y="34.0046692" class="st0" width="41" height="41"/>
  <path class="st1" d="M53.0046692,34.0046692h37c1.1040039,0,2,0.8959961,2,2v37c0,1.1049805-0.8959961,2-2,2h-37
    c-1.1049805,0-2-0.8950195-2-2v-37C51.0046692,34.9006653,51.8996887,34.0046692,53.0046692,34.0046692z"/>
  <path class="st6" d="M72.98172,66.1428528h-3.5c-0.2650146,0-0.6940918-0.5830078-0.6940918-0.8691406v-8.6889648h-1.80896
    c-0.2640381,0-0.9050293-0.5820313-0.9050293-0.8701172v-2.605957c0-0.2880859,0.6409912-0.8691406,0.9050293-0.8691406h1.80896
    v-2.6069336c0-3.3208008,1.5419922-5.2138672,4.5270996-5.2138672c1.3328857,0,2.93396,0.1108398,3.2049561,0.1508789
    c0.2380371,0.0332031,0.4160156,0.2539063,0.4160156,0.5151367v2.8100586c0,0.2866211-0.6409912,0.8686523-0.9060059,0.8686523
    h-0.9050293c-1.0350342,0-0.9050293,0.8413086-0.9050293,1.7382813v1.737793l2.1199951-0.2470703
    c0.1380615,0,0.269043,0.0639648,0.3590088,0.1762695c0.0910645,0.1108398,0.1330566,0.2607422,0.1149902,0.4101563
    l0.1220703,3.1357422c-0.0310059,0.2602539-0.6660156,0.8701172-0.9060059,0.8701172H74.219635v8.6889648
    C74.219635,65.5588684,73.2466125,66.1428528,72.98172,66.1428528z"/>
</g>
<g id="anker-small-logo">
  <rect id="box-rect_16_" x="0.0116758" y="85" class="st0" width="23.9929943" height="30"/>
  <path class="st7" d="M19.2886677,106.8584137l-5.6488829,3.6764984v-8.5452728h4.327054l2.0870495,3.6497116h3.7527542
    L12.0049839,85L0.2029562,105.6393509h3.7527323l2.0870728-3.6497116h4.3270535v8.5452728l-5.6491423-3.6764984H0.0046701
    L12.0049839,115l11.9996853-8.1415863H19.2886677z M7.7626405,98.9326553l3.7978244-6.5976028l0.444519-0.9206161
    l0.4441509,0.9206161l3.7978249,6.5976028l-4.2419758-0.0217743L7.7626405,98.9326553z"/>
</g>
<g id="breadcrumb-delimiter">
  <rect id="box-rect_17_" x="0.0116749" y="125" class="st0" width="7" height="13"/>
  <path class="st8" d="M0.0116749,136.4530029l4.2470093-5.0509949l-4.1940308-4.8300171L1.4726734,125l5.5390015,6.3760071
    l-5.5689697,6.6229858V138L0.0116749,136.4530029L0.0116749,136.4530029z"/>
</g>
<g id="color-icon-overlay">
  <rect id="box-rect_18_" x="0.0116749" y="148" class="st0" width="41" height="36"/>
  <path id="bg" class="st6" d="M0.0116749,148v36h41v-36H0.0116749z M30.1416798,182H11.63167l-9.2399902-16l9.2399902-16h18.5100098
    l9.2499981,16L30.1416798,182z"/>
  <g id="white-line">
    <path class="st6" d="M29.7616749,149.9999847l9.2499981,16l-9.2499981,16h-18.5l-9.25-16l9.25-16H29.7616749
       M30.3386326,148.9999847h-0.5769577h-18.5h-0.5769577l-0.2887726,0.4995117l-9.25,16l-0.28936,0.5004883l0.28936,0.5004883
      l9.25,16l0.2887726,0.4995117h0.5769577h18.5h0.5769577l0.2887726-0.4995117l9.2499981-16l0.28936-0.5004883l-0.28936-0.5004883
      l-9.2499981-16L30.3386326,148.9999847L30.3386326,148.9999847z"/>
  </g>
  <g id="black-line">
    <polygon class="st0" points="10.7616749,183 1.0116749,166 10.7616749,149 30.2616749,149 40.011673,166 30.2616749,183    "/>
  </g>
</g>
<g id="color-icon-active-overlay">
  <rect id="box-rect_19_" x="51.011673" y="148" class="st0" width="41" height="36"/>
  <path id="bg_1_" class="st6" d="M51.011673,148v36h41v-36H51.011673z M81.1416779,182H62.6316681l-9.2399902-16l9.2399902-16
    h18.5100098l9.25,16L81.1416779,182z"/>
  <g id="white-line_1_">
    <path class="st6" d="M80.761673,150l9.25,16l-9.25,16h-18.5l-9.25-16l9.25-16H80.761673 M81.3386307,149H80.761673h-18.5
      h-0.5769577l-0.2887726,0.4994965l-9.25,16L51.8565826,166l0.28936,0.5005035l9.25,16L61.6847153,183h0.5769577h18.5h0.5769577
      l0.2887726-0.4994965l9.2499924-16L91.1667633,166l-0.2893677-0.5005035l-9.2499924-16L81.3386307,149L81.3386307,149z"/>
  </g>
  <g id="black-line_1_">
    <path d="M81.261673,149l9.75,17l-9.75,17h-19.5l-9.75-17l9.75-17H81.261673 M81.8409424,148H81.261673h-19.5h-0.5792694
      l-0.2881889,0.5024872l-9.75,17L50.8588829,166l0.2853317,0.4975128l9.75,17L61.1824036,184h0.5792694h19.5h0.5792694
      l0.2881927-0.5024872l9.75-17L92.1644592,166l-0.2853241-0.4975128l-9.75-17L81.8409424,148L81.8409424,148z"/>
  </g>
</g>
<g id="color-icon-default-overlay">
  <rect id="box-rect_20_" x="102.0116806" y="148" class="st0" width="41" height="36"/>
  <path id="bg_2_" class="st6" d="M102.0116806,148v36h40.9999924v-36H102.0116806z M132.1416779,182h-18.5100021l-9.2399902-16
    l9.2399902-16h18.5100021l9.25,16L132.1416779,182z"/>
  <g id="white-line_2_">
    <path class="st6" d="M131.761673,150l9.25,16l-9.25,16h-18.5l-9.25-16l9.25-16H131.761673 M132.3386383,149h-0.5769653h-18.5
      h-0.5769577l-0.2887726,0.4994965l-9.25,16L102.8565826,166l0.28936,0.5005035l9.25,16L112.6847153,183h0.5769577h18.5h0.5769653
      l0.2887726-0.4994965l9.2499847-16L142.1667633,166l-0.2893677-0.5005035l-9.2499847-16L132.3386383,149L132.3386383,149z"/>
  </g>
  <g id="black-line_3_">
    <path class="st8" d="M132.261673,149l9.75,17l-9.75,17h-19.4999924l-9.75-17l9.75-17H132.261673 M132.8409424,148h-0.5792694
      h-19.4999924h-0.5792694l-0.2881851,0.5024872l-9.75,17L101.8588943,166l0.2853317,0.4975128l9.75,17L112.1824112,184h0.5792694
      h19.4999924h0.5792694l0.2881927-0.5024872l9.75-17L143.1644592,166l-0.2853241-0.4975128l-9.75-17L132.8409424,148
      L132.8409424,148z"/>
  </g>
</g>
<rect x="87.5" y="209.3333282" class="st0" width="0.3333333" height="0"/>
<g id="dropdown-icon-white">
  <path class="st6" d="M86.0469971,211l5.0510254,4.8540039l4.8299561-4.7930298L97.5,212.6699829L91.1240234,219
    l-6.6230469-6.3649902H84.5L86.0469971,211L86.0469971,211z"/>
  <rect id="box-rect_22_" x="64" y="194" class="st0" width="54" height="42"/>
</g>
<g id="dropdown-icon">
  <path class="st1" d="M22.0469971,211l5.0510254,4.8540039l4.8299561-4.7930298L33.5,212.6699829L27.1240234,219
    l-6.6230469-6.3649902H20.5L22.0469971,211L22.0469971,211z"/>
  <rect id="box-rect_21_" y="194" class="st0" width="54" height="42"/>
</g>
<g id="spoiler-icon">
  <path class="st9" d="M129.5469971,194l5.0510254,4.8540039l4.8299561-4.7930298L141,195.6699829L134.6240234,202
    l-6.6230469-6.3649902H128L129.5469971,194L129.5469971,194z"/>
  <rect id="box-rect_23_" x="128" y="194" class="st0" width="13" height="8"/>
</g>
<g id="is-new-icon-bg">
  <rect id="box-rect_24_" x="153.0046692" y="148" class="st0" width="85" height="29"/>
  <path class="st1" d="M153.0046692,148h85l-8.3369751,14.4710083L238.0046692,177h-85l8.5980225-14.5289917L153.0046692,148z"/>
</g>
<g id="close-icon">
  <rect id="box-rect_25_" x="153.0046692" y="194" class="st0" width="14" height="14"/>
  <path class="st1" d="M167.0046692,195.4100037L165.5946655,194l-5.5899963,5.5899963L154.4146729,194l-1.4100037,1.4100037
    L158.5946655,201l-5.5899963,5.5899963L154.4146729,208l5.5899963-5.5899963L165.5946655,208l1.4100037-1.4100037L161.4146729,201
    L167.0046692,195.4100037z"/>
</g>
<g id="fav-icon-1">
  <rect id="box-rect_26_" x="177.0046692" y="194" class="st0" width="18" height="17"/>
  <path class="st2" d="M189.9426575,195.7000122c1.8609619,0,3.3740234,1.5249634,3.3740234,3.3999634
    c0,5.0090332-5.3060303,8.7220459-7.3120117,9.9450073c-2.0059814-1.2229614-7.3129883-4.9359741-7.3129883-9.9450073
    c0-1.875,1.5140381-3.3999634,3.375-3.3999634c1.0229492,0,1.9799805,0.4619751,2.6259766,1.2659912
    c0.3200684,0.4000244,0.802002,0.6309814,1.3120117,0.6309814l0,0c0.5100098,0,0.9919434-0.230957,1.3120117-0.6309814
    C187.962677,196.1619873,188.9197083,195.7000122,189.9426575,195.7000122 M189.9426575,194
    c-1.592041,0-3.0100098,0.7410278-3.9379883,1.8980103C185.0766907,194.7410278,183.6587219,194,182.0666809,194
    c-2.7960205,0-5.0620117,2.28302-5.0620117,5.0999756c0,6.8000488,7.875,11.3330078,9,11.9000244
    c1.125-0.5670166,9-5.0999756,9-11.9000244C195.0046692,196.28302,192.7377014,194,189.9426575,194L189.9426575,194z"/>
</g>
<g id="fav-icon-full">
  <rect id="box-rect_27_" x="205.0046692" y="194" class="st0" width="18" height="17"/>
  <path class="st2" d="M217.9426575,194c-1.592041,0-3.0100098,0.7410278-3.9379883,1.8980103
    C213.0766907,194.7410278,211.6587219,194,210.0666809,194c-2.7960205,0-5.0620117,2.28302-5.0620117,5.0999756
    c0,6.8000488,7.875,11.3330078,9,11.9000244c1.125-0.5670166,9-5.0999756,9-11.9000244
    C223.0046692,196.28302,220.7377014,194,217.9426575,194L217.9426575,194z"/>
</g>
</svg>