<?xml version="1.0" encoding="utf-8"?>
<!-- Generator: Adobe Illustrator 18.0.0, SVG Export Plug-In . SVG Version: 6.00 Build 0)  -->
<!DOCTYPE svg PUBLIC "-//W3C//DTD SVG 1.1//EN" "http://www.w3.org/Graphics/SVG/1.1/DTD/svg11.dtd" [
  <!ENTITY ns_extend "http://ns.adobe.com/Extensibility/1.0/">
  <!ENTITY ns_ai "http://ns.adobe.com/AdobeIllustrator/10.0/">
  <!ENTITY ns_graphs "http://ns.adobe.com/Graphs/1.0/">
  <!ENTITY ns_vars "http://ns.adobe.com/Variables/1.0/">
  <!ENTITY ns_imrep "http://ns.adobe.com/ImageReplacement/1.0/">
  <!ENTITY ns_sfw "http://ns.adobe.com/SaveForWeb/1.0/">
  <!ENTITY ns_custom "http://ns.adobe.com/GenericCustomNamespace/1.0/">
  <!ENTITY ns_adobe_xpath "http://ns.adobe.com/XPath/1.0/">
]>
<svg version="1.1" id="Слой_1" xmlns:x="&ns_extend;" xmlns:i="&ns_ai;" xmlns:graph="&ns_graphs;"
   xmlns="http://www.w3.org/2000/svg" xmlns:xlink="http://www.w3.org/1999/xlink" x="0px" y="0px" viewBox="0 0 77.823616 76"
   style="enable-background:new 0 0 77.823616 76;" xml:space="preserve" width="78" height="76">
<style type="text/css">
  .st0{fill:#222220;}
</style>
<metadata>
  <sfw  xmlns="&ns_sfw;">
    <slices></slices>
    <sliceSourceBounds  width="-32766" height="-32766" y="24274" x="8592" bottomLeftOrigin="true"></sliceSourceBounds>
  </sfw>
</metadata>
<g>
  <path class="st0" d="M52.2330475,37.3804245l-9.7345963,6.2630196V29.086319h7.4567184l3.5965691,6.2173958h6.467041
    L39.6812325,0.1439716L19.3430538,35.3037148h6.4670029l3.5966072-6.2173958h7.4567204v14.5571251l-9.7350464-6.2630196h-8.1269875
    l20.679882,13.8694305l20.6788025-13.8694305H52.2330475z M32.3704948,23.8786583l6.5447083-11.2392139l0.7660294-1.5682898
    l0.7653961,1.5682898l6.5447121,11.2392139l-7.3101082-0.0370884L32.3704948,23.8786583z"/>
  <g>
    <path class="st0" d="M62.0924072,59.6626434v2.9708481h-6.6153984v3.2736282h5.222496v2.9477005h-5.222496v3.877182h7.0334663
      v2.9477005H52.0410385V59.6626434H62.0924072z"/>
    <g>
      <polygon class="st0" points="39.3210297,70.949852 39.3210297,62.5767403 39.3214302,62.5767403 39.3214302,59.6626434 
        35.88591,59.6626434 35.88591,75.6797028 39.3214302,75.6797028 39.3214302,70.949852      "/>
      <polygon class="st0" points="42.4783859,67.3925629 49.349472,59.6626434 45.28685,59.6626434 40.558342,65.0536041 
        40.558342,69.8440857 45.9597549,75.6797028 50.1847153,75.6797028      "/>
    </g>
    <g>
      <polygon class="st0" points="32.1723633,70.0784149 32.1723633,59.6626434 28.7599449,59.6626434 28.7599449,66.776413       "/>
      <polygon class="st0" points="28.805748,68.5436783 28.8066406,68.5532913 27.8187122,67.5880585 27.7776909,67.5487823 
        18.7089806,59.1983719 18.4768448,59.1983719 18.4768448,75.6797028 21.8892632,75.6797028 21.8892632,67.6713943 
        21.842165,66.5564728 22.7245045,67.4623642 31.8703899,76.1439743 32.1723633,76.1439743 32.1723633,71.8003311      "/>
    </g>
    <path class="st0" d="M8.1474962,65.6287384h0.1156473c0.0933905,0.3246765,0.5341091,1.4391479,0.673748,1.7873764
      l1.2301188,2.9939499H7.3423715l-1.1974092,2.7626572h5.2522116l1.1371746,2.5069809h3.8535872L8.3098345,59.1054306h-0.209034
      L0,75.6797028h3.7096145L8.1474962,65.6287384"/>
    <path class="st0" d="M73.4433289,69.2156906c1.8711624-0.5594025,3.1339951-2.3336868,3.1339951-4.8637695
      c0-2.461132-1.5551987-4.7590752-6.10569-4.7590752c-1.5080948,0-3.8069305,0.0462494-5.1762466,0.0697975v16.0170593h3.319931
      v-6.244072l0,0v-2.7857666l0,0v-4.2249603c0.3944702-0.0235939,1.3693008-0.0698433,1.8563156-0.0698433
      c1.764679,0,2.6470184,0.8823395,2.6470184,2.1591988c0,1.3928604-0.8823395,2.2516479-2.6697159,2.2516479
      c-0.2042084,0-0.4049759-0.0052261-0.5960922-0.013092v2.7495728l0,0l4.1638794,6.1773148h3.8068924L73.4433289,69.2156906z"/>
  </g>
</g>
<g>
</g>
<g>
</g>
<g>
</g>
<g>
</g>
<g>
</g>
<g>
</g>
<g>
</g>
<g>
</g>
<g>
</g>
<g>
</g>
<g>
</g>
<g>
</g>
<g>
</g>
<g>
</g>
<g>
</g>
</svg>
